<svg xmlns="http://www.w3.org/2000/svg" xmlns:xlink="http://www.w3.org/1999/xlink" width="174.5" height="58" viewBox="0 0 174.5 58">
  <defs>
    <filter id="Wh" x="0" y="0" width="78" height="58" filterUnits="userSpaceOnUse">
      <feOffset dy="3" input="SourceAlpha"/>
      <feGaussianBlur stdDeviation="3" result="blur"/>
      <feFlood flood-opacity="0"/>
      <feComposite operator="in" in2="blur"/>
      <feComposite in="SourceGraphic"/>
    </filter>
  </defs>
  <g id="Group_67" data-name="Group 67" transform="translate(-99 -249.685)">
    <g id="Group_66" data-name="Group 66">
      <g transform="matrix(1, 0, 0, 1, 99, 249.68)" filter="url(#Wh)">
        <text id="Wh-2" data-name="Wh" transform="translate(10 36)" fill="#0e1111" font-size="40" font-family="SitkaDisplay-Bold, Sitka Display" font-weight="700" letter-spacing="0.033em"><tspan x="0" y="0">Wh</tspan></text>
      </g>
      <g id="icon_maps_place_24px" data-name="icon/maps/place_24px" transform="translate(162.088 263.356)">
        <rect id="Boundary" width="17.657" height="17.657" fill="none"/>
        <path id="_Color" data-name=" ↳Color" d="M12.206,34.657h0A78.835,78.835,0,0,1,6.1,26.8C3.319,22.7,0,16.829,0,12.13A12.015,12.015,0,0,1,3.573,3.55a12.273,12.273,0,0,1,17.267,0,12.015,12.015,0,0,1,3.573,8.58c0,4.7-3.319,10.574-6.1,14.674a78.835,78.835,0,0,1-6.1,7.85Zm0-26.859a4.333,4.333,0,1,0,4.36,4.332A4.351,4.351,0,0,0,12.206,7.8Z" transform="translate(5 2)" fill="#0e1111"/>
      </g>
      <text id="ps_" data-name="ps!" transform="translate(218.5 285.685)" fill="#0e1111" font-size="40" font-family="SitkaDisplay-Bold, Sitka Display" font-weight="700" letter-spacing="0.033em"><tspan x="0" y="0">ps!</tspan></text>
      <g id="icon_maps_place_24px-2" data-name="icon/maps/place_24px" transform="matrix(-0.999, -0.035, 0.035, -0.999, 223.151, 293.449)">
        <rect id="Boundary-2" data-name="Boundary" width="8.585" height="8.585" fill="none"/>
        <path id="_Color-2" data-name=" ↳Color" d="M12.2,34.66h0a78.84,78.84,0,0,1-6.1-7.851C3.319,22.706,0,16.831,0,12.131A12.017,12.017,0,0,1,3.572,3.551a12.27,12.27,0,0,1,17.266,0,12.017,12.017,0,0,1,3.572,8.581c0,4.7-3.319,10.575-6.1,14.676a78.84,78.84,0,0,1-6.1,7.851ZM12.2,7.8a4.333,4.333,0,1,0,4.359,4.333A4.351,4.351,0,0,0,12.2,7.8Z" transform="translate(5 2)" fill="#0e1111"/>
      </g>
    </g>
  </g>
</svg>
